<?xml version="1.0" encoding="UTF-8"?>
<svg xmlns="http://www.w3.org/2000/svg" version="1.1" viewBox="0 0 273.08 102.42">
  <defs>
    <style>
      .cls-1 {
        fill: #231815;
      }
    </style>
  </defs>
  <g>
    <g id="layer1" data-name="layer1">
      <g>
        <path class="cls-1" d="M103.54,10.09h1.68c10.92,2.36,16.78,3.94,17.57,4.74l3.05,1.46c.35,1.03.47,1.84.35,2.43-1.71,5.76-3.16,8.63-4.34,8.63-.88.27-1.58.4-2.08.4-1.8-.59-2.54-1.62-2.21-3.1.77-2.48,1.18-3.79,1.24-3.94-3.96-.35-8.25-1.25-12.88-2.7-3.1-.32-4.75-.59-4.96-.8-5.25,6.73-8.54,11.79-9.87,15.18-3.36,5.13-6.42,11.76-9.16,19.88l-.62,2.97c2.36,5.84,4.4,9.89,6.11,12.13.56.71.75,1.06.58,1.06l8.63-1.55c9.74-3.51,16.02-6.11,18.86-7.79h1.28c2.24.21,3.17,1.17,2.79,2.88l-.09.4c-.59,2.77-5.67,5.55-15.23,8.32-2.39,1.3-6.55,2.52-12.48,3.67-.41,0-2.07.27-4.96.8-3.16,0-6.04-2.8-8.63-8.41-2.39-5.93-3.38-9.9-2.97-11.91,1.33-6.26,6.2-16.93,14.61-32.01,2.04-3.22,4.65-6.6,7.84-10.14,1.3-1.12,3.26-1.99,5.89-2.61Z"/>
        <path class="cls-1" d="M160.2,10.36h.8c2.36,0,6.07,1.11,11.11,3.32,1.51.21,3.98,1.96,7.44,5.27,1.77,6.43,2.41,10.8,1.9,13.1.56,0-.16,5-2.17,15.01-1.03,4.87-3.57,9.92-7.61,15.14-7.62,8.65-14.33,12.97-20.14,12.97h-.44c-9.21-.47-13.72-1.12-13.55-1.95-4.16-1.71-8.1-4.68-11.82-8.9-3.93-2.07-5.55-4.75-4.87-8.06l.22-.84c2.54-9.41,4.85-16.1,6.95-20.05,1.74-3.3,6.95-9.27,15.63-17.88,5.46-4.6,10.32-6.91,14.56-6.91.03-.15.69-.22,1.99-.22ZM130.63,47.68c-.77,4.22-1.26,6.82-1.46,7.79,1.68.62,4.22,2.49,7.61,5.62,4.34,2.6,8.22,3.9,11.64,3.9l5,.62c3.04,0,7.36-3.5,12.97-10.49,2.01-3.13,3.28-5.95,3.81-8.46,2.39-11.24,2.63-18.61.71-22.09l-3.94-2.08c-2.04-.53-4.44-1.39-7.22-2.57-2.8,0-4.49-.83-5.05-2.48-1.06,0-4.15,2.32-9.25,6.95-7.67,8.29-11.73,13.49-12.17,15.58-1.3,2.92-2.18,5.49-2.66,7.7Z"/>
        <path class="cls-1" d="M195.7,10.63h.31c5.46.94,10.34,2.26,14.65,3.94,3.28,2.8,6.45,4.96,9.52,6.46,1.39,1.65,1.93,3.17,1.64,4.56-3.63,9.06-6.71,13.59-9.25,13.59-4.1,2.07-7.01,3.47-8.72,4.21.03-.12,1.12.94,3.28,3.19,2.3,3.9,3.92,7.88,4.87,11.95-.21,1,1.12,4.93,3.98,11.78.15.35.16.81.04,1.37l-.09.44c-.74,2.04-2.05,3.05-3.94,3.05-1.54,0-3.22-3.11-5.05-9.34-.71-1.98-1.71-5.71-3.01-11.2-1.45-3.19-3.07-5.81-4.87-7.88-.15-.65-.03-.97.35-.97-.41,0-3.03.88-7.84,2.66-.29,1.39-.5,2.67-.62,3.85l-3.14,10.98c-.35,2.92-.63,4.87-.84,5.84-.29,1.42-1.18,2.51-2.66,3.28h-.53c-1.86,0-2.57-1.74-2.12-5.22-.44,0-.24-2.35.62-7.04l1.15-5.45c.41-1.92,1.21-8.16,2.39-18.73.89-6.73,1.86-13.18,2.92-19.34-.15,0-.13-.43.04-1.28.68-3.13,2.98-4.69,6.91-4.69ZM196.06,17.44l-3.5,23.37h-1.2c1.62-.74,4.03-1.51,7.21-2.3,3.04-2.01,7.38-4.03,13.02-6.06.86-1.21,2.02-3.39,3.5-6.55-.15-.21-1.14-.69-2.97-1.46-3.6-3.51-7.7-5.67-12.31-6.46-1.92,0-3.17-.18-3.76-.53Z"/>
        <path class="cls-1" d="M270.92,9.83h.35c.91.21,1.39.96,1.42,2.26l-.13.58c-.47,2.21-2.38,6.61-5.71,13.19l-6.77,10.71c-2.86,5.55-4.86,9.71-5.98,12.48.03,1.3-.18,3.03-.62,5.18-.53,2.48-1.39,5.43-2.57,8.85-1.71,8.06-3.9,12.09-6.55,12.09h-.35c-2.36,0-3.84-1.4-4.43-4.21l.04-.31c.18-.83,1.22-3.88,3.14-9.16,1.21-3.87,2.05-6.91,2.52-9.12.32-1.5.47-2.66.44-3.45.35-1.21,1.12-3.01,2.3-5.4.21-.44.32-.74.35-.89v.18c-.86-.77-1.33-2.3-1.42-4.6.24,0,.31.27.22.8l-.04.27c-.92-1-2.7-3.84-5.36-8.5-5.13-5.87-8.38-11.01-9.74-15.41,0-.18.01-.34.04-.49.15-.77.83-1.4,2.04-1.9,2.01,0,4.72,2.39,8.14,7.17,4.75,5.49,7.7,9.56,8.85,12.22,1.62,2.24,2.32,2.72,2.08,1.42.94-1.74,2.64-4.21,5.09-7.39,3.07-4.28,6.2-9.19,9.38-14.74,1.18-1.21,2.26-1.82,3.23-1.82Z"/>
      </g>
      <g>
        <path class="cls-1" d="M76.55,91.17v.52c0,.08.02.15.07.21.04.06.1.09.16.09h2.53c.06,0,.11.03.16.09.04.06.07.13.07.21v1.72c0,.08-.02.15-.07.21-.04.06-.1.09-.16.09h-2.53c-.06,0-.12.03-.16.09-.04.06-.07.13-.07.21v.47c0,.08.02.15.07.21.04.06.1.09.16.09h2.9c.06,0,.11.03.16.09.04.06.07.13.07.21v1.72c0,.08-.02.15-.07.21-.04.06-.1.09-.16.09h-4.75c-.06,0-.11-.03-.16-.09-.04-.06-.07-.13-.07-.21v-8.52c0-.08.02-.15.07-.21.04-.06.1-.09.16-.09h4.75c.06,0,.11.03.16.09.04.06.07.13.07.21v1.69c0,.08-.02.15-.07.21-.04.06-.1.09-.16.09h-2.9c-.06,0-.12.03-.16.09-.04.06-.07.13-.07.21Z"/>
        <path class="cls-1" d="M84.2,92.95l-2.34-4.01c-.04-.07-.05-.14-.03-.22s.06-.12.12-.12h1.79c.06,0,.13.03.2.08s.12.11.16.17l1.17,2.28c.04.07.08.1.13.1s.09-.03.13-.1c.2-.37.4-.76.59-1.15.2-.39.39-.77.57-1.14.04-.07.09-.12.16-.17.07-.04.13-.07.2-.07h1.78c.07,0,.12.04.13.12.01.08,0,.16-.04.22l-2.32,4.01c-.04.07-.06.15-.06.24s.02.17.06.24l2.28,3.91c.04.07.04.14.02.23-.02.09-.06.13-.13.13h-1.77c-.06,0-.13-.03-.2-.08s-.12-.11-.16-.17l-1.12-2.18c-.04-.07-.08-.1-.13-.1s-.09.03-.13.1l-1.12,2.18c-.04.07-.09.12-.16.17-.07.05-.13.08-.2.08h-1.77c-.06,0-.1-.04-.12-.13s0-.16.03-.23l2.28-3.91c.04-.07.06-.14.06-.24s-.02-.17-.06-.24Z"/>
        <path class="cls-1" d="M93.82,95.24h-.81c-.06,0-.12.03-.16.09-.04.06-.07.13-.07.21v1.86c0,.08-.02.15-.06.21-.04.06-.1.09-.16.09h-1.4c-.06,0-.11-.03-.16-.09-.04-.06-.06-.13-.06-.21v-8.52c0-.08.02-.15.07-.21.04-.06.1-.09.16-.09h2.85c.35,0,.68.09.98.26.31.17.58.42.8.72.23.31.41.66.54,1.07.13.41.2.84.2,1.31s-.06.9-.17,1.3c-.11.4-.28.75-.51,1.05-.23.29-.51.53-.85.7s-.74.25-1.19.25ZM93.89,90.87h-.88c-.06,0-.12.03-.16.09-.04.06-.07.13-.07.21v1.46c0,.08.02.15.07.21.04.06.1.09.16.09h1c.24,0,.41-.1.52-.3s.16-.43.16-.69c0-.13-.02-.26-.05-.39s-.09-.24-.15-.34c-.07-.1-.15-.18-.25-.24-.1-.06-.22-.09-.35-.09Z"/>
        <path class="cls-1" d="M103.78,95.7v1.69c0,.08-.02.15-.07.21-.04.06-.1.09-.16.09h-4.65c-.07,0-.12-.03-.16-.09-.04-.06-.06-.13-.06-.21v-8.52c0-.08.02-.15.06-.21.04-.06.09-.09.16-.09h1.4c.06,0,.12.03.16.09.04.06.06.13.06.21v6.23c0,.08.02.15.06.21.04.06.09.09.16.09h2.81c.06,0,.11.03.16.09.04.06.07.13.07.21Z"/>
        <path class="cls-1" d="M105.16,93.13c0-.65.09-1.26.28-1.83.19-.57.44-1.07.76-1.5.32-.43.69-.77,1.12-1.01.43-.25.89-.37,1.37-.37s.94.12,1.37.37c.43.25.8.59,1.12,1.01.32.43.57.93.76,1.5.19.57.28,1.18.28,1.83s-.09,1.26-.28,1.83c-.19.57-.44,1.07-.76,1.5s-.69.77-1.12,1.01c-.43.25-.89.37-1.37.37s-.94-.12-1.37-.37c-.43-.25-.8-.59-1.12-1.01-.32-.43-.57-.93-.76-1.5-.19-.57-.28-1.18-.28-1.83ZM107,93.13c0,.32.04.61.13.9s.21.53.36.75.33.39.54.52c.21.13.42.19.65.19s.45-.06.65-.19c.21-.13.39-.3.54-.52s.28-.46.36-.75c.09-.28.13-.58.13-.9s-.04-.6-.13-.89c-.09-.29-.21-.54-.36-.75-.16-.21-.34-.38-.54-.51s-.42-.19-.65-.19-.45.06-.65.19-.38.3-.54.51c-.15.21-.27.46-.36.75-.09.29-.13.58-.13.89Z"/>
        <path class="cls-1" d="M116.22,97.69h-1.4c-.06,0-.12-.03-.16-.09-.04-.06-.07-.13-.07-.21v-8.52c0-.08.02-.15.07-.21.04-.06.1-.09.16-.09h2.9c.36,0,.69.08,1,.24s.56.39.78.68c.21.29.38.63.5,1.03s.18.84.18,1.32c0,.27-.02.53-.07.79-.05.26-.11.51-.2.74s-.19.44-.31.63-.25.34-.4.47c-.05.05-.08.11-.1.18s0,.14.03.21c.24.42.48.84.75,1.28.26.44.49.84.7,1.21.04.07.05.14.03.22-.02.08-.06.12-.12.12h-1.73c-.06,0-.13-.02-.2-.07s-.13-.1-.16-.17c-.2-.35-.39-.7-.59-1.06-.2-.36-.39-.72-.58-1.08-.04-.07-.09-.12-.16-.17-.07-.04-.13-.07-.19-.07h-.2c-.06,0-.12.03-.16.09-.04.06-.07.13-.07.21v2.02c0,.08-.02.15-.07.21-.04.06-.1.09-.16.09ZM116.67,92.78h.98c.07,0,.15-.02.23-.06s.15-.1.22-.17c.07-.08.12-.18.17-.29.04-.12.07-.25.07-.41,0-.08-.01-.18-.03-.29-.02-.11-.06-.22-.11-.32-.05-.1-.12-.19-.21-.26s-.2-.11-.33-.11h-.98c-.06,0-.11.03-.16.09-.04.06-.07.13-.07.21v1.32c0,.08.02.15.07.21s.1.09.16.09Z"/>
        <path class="cls-1" d="M124.56,91.17v.52c0,.08.02.15.07.21.04.06.1.09.16.09h2.53c.06,0,.12.03.16.09.04.06.07.13.07.21v1.72c0,.08-.02.15-.07.21-.04.06-.1.09-.16.09h-2.53c-.06,0-.12.03-.16.09-.04.06-.07.13-.07.21v.47c0,.08.02.15.07.21.04.06.1.09.16.09h2.9c.06,0,.12.03.16.09.04.06.07.13.07.21v1.72c0,.08-.02.15-.07.21-.04.06-.1.09-.16.09h-4.75c-.06,0-.12-.03-.16-.09-.04-.06-.07-.13-.07-.21v-8.52c0-.08.02-.15.07-.21.04-.06.1-.09.16-.09h4.75c.06,0,.12.03.16.09.04.06.07.13.07.21v1.69c0,.08-.02.15-.07.21-.04.06-.1.09-.16.09h-2.9c-.06,0-.12.03-.16.09-.04.06-.07.13-.07.21Z"/>
        <path class="cls-1" d="M141.13,88.94l-2.33,5.04c-.03.08-.06.17-.08.27-.02.11-.04.2-.04.29v2.85c0,.08-.02.15-.06.21-.04.06-.1.09-.16.09h-1.4c-.06,0-.12-.03-.16-.09-.04-.06-.06-.13-.06-.21v-2.84c0-.08-.01-.18-.03-.29-.02-.11-.05-.2-.08-.27-.37-.85-.75-1.69-1.14-2.52-.39-.82-.78-1.67-1.16-2.54-.03-.07-.04-.15-.02-.23.02-.08.06-.12.12-.12h1.66c.06,0,.13.03.19.08s.11.11.14.19l1.14,2.67c.03.07.07.1.11.1s.08-.03.11-.1l1.13-2.67c.03-.08.08-.14.14-.19s.13-.08.19-.08h1.68c.06,0,.11.03.14.09.03.06.02.15-.03.26Z"/>
        <path class="cls-1" d="M142.36,93.13c0-.65.09-1.26.28-1.83.19-.57.44-1.07.76-1.5.32-.43.69-.77,1.12-1.01.43-.25.89-.37,1.37-.37s.94.12,1.37.37c.43.25.8.59,1.12,1.01.32.43.57.93.76,1.5.19.57.28,1.18.28,1.83s-.09,1.26-.28,1.83c-.19.57-.44,1.07-.76,1.5s-.69.77-1.12,1.01c-.43.25-.89.37-1.37.37s-.94-.12-1.37-.37c-.43-.25-.8-.59-1.12-1.01-.32-.43-.57-.93-.76-1.5-.19-.57-.28-1.18-.28-1.83ZM144.21,93.13c0,.32.04.61.13.9s.21.53.36.75.33.39.54.52c.21.13.42.19.65.19s.45-.06.65-.19c.21-.13.39-.3.54-.52s.28-.46.36-.75c.09-.28.13-.58.13-.9s-.04-.6-.13-.89c-.09-.29-.21-.54-.36-.75-.16-.21-.34-.38-.54-.51s-.42-.19-.65-.19-.45.06-.65.19-.38.3-.54.51c-.15.21-.27.46-.36.75-.09.29-.13.58-.13.89Z"/>
        <path class="cls-1" d="M151.8,88.89c0-.08.02-.15.07-.21.04-.06.1-.09.16-.09h1.4c.06,0,.11.03.16.09.04.06.07.13.07.21v5.04c0,.32.04.59.12.8.08.21.17.38.29.5s.24.21.37.25c.13.05.25.08.36.08s.22-.03.36-.08c.13-.05.25-.13.37-.25s.21-.29.29-.5c.08-.21.12-.48.12-.8v-5.04c0-.08.02-.15.06-.21.04-.06.1-.09.16-.09h1.4c.06,0,.11.03.16.09.04.06.06.13.06.21v5.04c0,.59-.07,1.12-.21,1.61s-.34.89-.6,1.23c-.26.34-.57.6-.94.79s-.77.28-1.22.28-.85-.09-1.22-.28-.68-.45-.94-.79c-.26-.34-.46-.75-.6-1.23-.14-.48-.21-1.02-.21-1.61v-5.04Z"/>
        <path class="cls-1" d="M162.19,97.69h-1.4c-.06,0-.12-.03-.16-.09-.04-.06-.07-.13-.07-.21v-8.52c0-.08.02-.15.07-.21.04-.06.1-.09.16-.09h2.9c.36,0,.69.08,1,.24s.56.39.78.68.38.63.5,1.03c.12.4.18.84.18,1.32,0,.27-.02.53-.07.79-.05.26-.11.51-.2.74s-.19.44-.31.63-.25.34-.4.47c-.05.05-.08.11-.1.18s0,.14.03.21c.24.42.49.84.75,1.28.26.44.49.84.7,1.21.04.07.05.14.03.22s-.06.12-.12.12h-1.73c-.06,0-.13-.02-.2-.07-.07-.05-.13-.1-.16-.17-.2-.35-.39-.7-.59-1.06s-.39-.72-.58-1.08c-.04-.07-.09-.12-.16-.17-.07-.04-.13-.07-.2-.07h-.2c-.06,0-.11.03-.16.09-.04.06-.06.13-.06.21v2.02c0,.08-.02.15-.07.21-.04.06-.1.09-.16.09ZM162.64,92.78h.98c.07,0,.15-.02.23-.06.08-.04.15-.1.22-.17.07-.08.12-.18.17-.29.04-.12.06-.25.06-.41,0-.08-.01-.18-.03-.29s-.06-.22-.11-.32c-.05-.1-.12-.19-.21-.26-.09-.07-.2-.11-.33-.11h-.98c-.06,0-.11.03-.16.09-.04.06-.06.13-.06.21v1.32c0,.08.02.15.06.21.04.06.1.09.16.09Z"/>
        <path class="cls-1" d="M179.89,95.27c-.18.39-.38.74-.6,1.06-.22.32-.46.59-.73.81s-.57.4-.9.52c-.33.12-.69.19-1.09.19-.5,0-.96-.12-1.4-.37-.44-.25-.82-.58-1.14-1.01-.33-.42-.58-.92-.77-1.49-.19-.57-.28-1.18-.28-1.83s.09-1.26.28-1.83c.19-.57.44-1.07.77-1.5.33-.42.71-.76,1.14-1.01.43-.25.9-.37,1.4-.37.41,0,.78.06,1.11.19.33.12.63.3.9.52.27.22.51.5.72.82s.41.67.59,1.05c.03.07.04.14.02.21-.02.08-.06.13-.11.16l-1.32.7c-.06.03-.12.03-.19,0-.06-.03-.11-.08-.14-.15-.18-.38-.4-.67-.65-.88-.25-.2-.56-.3-.92-.3-.24,0-.46.07-.67.2-.21.13-.39.31-.54.53-.16.22-.28.48-.36.77s-.13.59-.13.9.04.62.13.91.21.54.36.76c.16.22.34.39.54.52.21.13.43.2.67.2.34,0,.65-.11.93-.33.28-.22.5-.5.66-.85.03-.07.08-.12.13-.15.06-.03.12-.03.18,0l1.32.7c.06.03.09.08.11.16.02.07.01.14-.02.22Z"/>
        <path class="cls-1" d="M181.71,93.13c0-.65.09-1.26.28-1.83.19-.57.44-1.07.75-1.5.32-.43.69-.77,1.12-1.01.43-.25.89-.37,1.37-.37s.94.12,1.37.37.8.59,1.12,1.01c.32.43.57.93.76,1.5.19.57.28,1.18.28,1.83s-.09,1.26-.28,1.83c-.19.57-.44,1.07-.76,1.5-.32.43-.69.77-1.12,1.01s-.89.37-1.37.37-.94-.12-1.37-.37c-.43-.25-.8-.59-1.12-1.01s-.57-.93-.75-1.5c-.19-.57-.28-1.18-.28-1.83ZM183.56,93.13c0,.32.04.61.13.9s.21.53.36.75.33.39.54.52c.21.13.42.19.65.19s.45-.06.65-.19c.21-.13.38-.3.54-.52s.28-.46.36-.75.13-.58.13-.9-.04-.6-.13-.89c-.09-.29-.21-.54-.36-.75-.16-.21-.33-.38-.54-.51s-.42-.19-.65-.19-.45.06-.65.19-.38.3-.54.51c-.15.21-.27.46-.36.75-.09.29-.13.58-.13.89Z"/>
        <path class="cls-1" d="M192.85,97.69h-1.4c-.07,0-.12-.03-.16-.09-.04-.06-.06-.13-.06-.21v-8.5c0-.08.02-.15.06-.21.04-.06.09-.09.16-.09h1.4c.06,0,.11.03.16.09.04.06.07.13.07.21v8.5c0,.08-.02.15-.07.21-.04.06-.1.09-.16.09Z"/>
        <path class="cls-1" d="M202.15,88.87v8.52c0,.08-.02.15-.07.21-.04.06-.1.09-.16.09h-1.38c-.06,0-.13-.03-.2-.08s-.12-.11-.16-.17l-2.43-4.57c-.04-.07-.08-.09-.12-.08-.04.01-.06.06-.06.14v4.46c0,.08-.02.15-.07.21-.04.06-.1.09-.16.09h-1.4c-.06,0-.12-.03-.16-.09-.04-.06-.07-.13-.07-.21v-8.52c0-.08.02-.15.07-.21.04-.06.1-.09.16-.09h1.4c.06,0,.13.02.2.07.07.05.12.1.16.17l2.42,4.57c.04.07.08.1.12.09.04,0,.06-.05.06-.14v-4.46c0-.08.02-.15.07-.21.04-.06.1-.09.16-.09h1.38c.06,0,.11.03.16.09.04.06.07.13.07.21Z"/>
        <path class="cls-1" d="M211.59,88.86c.02-.08.07-.14.13-.19.06-.05.12-.08.19-.08h1.3c.06,0,.12.03.18.08.06.05.1.12.12.19l2.72,8.47c.02.08.02.15-.01.24-.03.08-.1.12-.2.12h-1.59c-.07,0-.13-.03-.19-.08-.06-.05-.1-.12-.13-.19l-.25-.75c-.03-.07-.08-.14-.13-.19-.06-.05-.12-.08-.18-.08h-1.97c-.07,0-.13.03-.19.08-.06.05-.1.12-.13.19l-.26.75c-.03.08-.07.14-.13.19-.06.05-.12.08-.18.08h-1.6s-.06,0-.1-.03c-.03-.02-.06-.04-.08-.07-.02-.03-.04-.08-.04-.12,0-.05,0-.11.03-.17l2.7-8.43ZM212.14,94.28h.83c.06,0,.11-.03.14-.08.03-.05.03-.12,0-.19-.06-.21-.14-.45-.22-.73-.09-.28-.17-.54-.24-.78-.02-.08-.05-.11-.08-.11s-.06.04-.08.11l-.47,1.51c-.02.07-.02.14,0,.19.03.05.07.08.14.08Z"/>
        <path class="cls-1" d="M224.72,88.87v8.52c0,.08-.02.15-.07.21-.04.06-.1.09-.16.09h-1.38c-.06,0-.13-.03-.2-.08s-.12-.11-.16-.17l-2.43-4.57c-.04-.07-.08-.09-.12-.08-.04.01-.06.06-.06.14v4.46c0,.08-.02.15-.07.21-.04.06-.1.09-.16.09h-1.4c-.06,0-.12-.03-.16-.09-.04-.06-.07-.13-.07-.21v-8.52c0-.08.02-.15.07-.21.04-.06.1-.09.16-.09h1.4c.06,0,.13.02.2.07.07.05.12.1.16.17l2.42,4.57c.04.07.08.1.12.09.04,0,.06-.05.06-.14v-4.46c0-.08.02-.15.07-.21.04-.06.1-.09.16-.09h1.38c.06,0,.11.03.16.09.04.06.07.13.07.21Z"/>
        <path class="cls-1" d="M234.13,95.27c-.18.39-.38.74-.6,1.06-.22.32-.46.59-.73.81-.27.22-.57.4-.9.52-.33.12-.69.19-1.09.19-.5,0-.96-.12-1.4-.37-.44-.25-.82-.58-1.14-1.01-.33-.42-.58-.92-.77-1.49-.19-.57-.28-1.18-.28-1.83s.09-1.26.28-1.83c.19-.57.44-1.07.77-1.5.33-.42.71-.76,1.14-1.01.43-.25.9-.37,1.4-.37.41,0,.78.06,1.11.19.33.12.63.3.9.52.27.22.51.5.72.82.21.32.41.67.59,1.05.03.07.04.14.02.21-.02.08-.06.13-.11.16l-1.32.7c-.06.03-.12.03-.19,0-.06-.03-.11-.08-.14-.15-.18-.38-.4-.67-.65-.88-.25-.2-.56-.3-.92-.3-.24,0-.46.07-.67.2-.21.13-.39.31-.54.53s-.28.48-.36.77-.13.59-.13.9.04.62.13.91.21.54.36.76c.16.22.34.39.54.52.21.13.43.2.67.2.34,0,.65-.11.93-.33.28-.22.5-.5.66-.85.03-.07.08-.12.14-.15.06-.03.12-.03.18,0l1.32.7c.06.03.09.08.11.16.02.07.01.14-.02.22Z"/>
        <path class="cls-1" d="M238.09,91.17v.52c0,.08.02.15.06.21.04.06.1.09.16.09h2.53c.06,0,.12.03.16.09.04.06.06.13.06.21v1.72c0,.08-.02.15-.06.21-.04.06-.1.09-.16.09h-2.53c-.06,0-.12.03-.16.09-.04.06-.06.13-.06.21v.47c0,.08.02.15.06.21.04.06.1.09.16.09h2.9c.06,0,.12.03.16.09.04.06.06.13.06.21v1.72c0,.08-.02.15-.06.21-.04.06-.1.09-.16.09h-4.75c-.06,0-.12-.03-.16-.09-.04-.06-.07-.13-.07-.21v-8.52c0-.08.02-.15.07-.21.04-.06.1-.09.16-.09h4.75c.06,0,.12.03.16.09.04.06.06.13.06.21v1.69c0,.08-.02.15-.06.21-.04.06-.1.09-.16.09h-2.9c-.06,0-.12.03-.16.09-.04.06-.06.13-.06.21Z"/>
        <path class="cls-1" d="M244.81,94.56c.34.29.67.52,1,.68.33.17.64.25.92.25s.48-.05.62-.16c.14-.1.21-.26.21-.47,0-.11-.03-.19-.09-.25-.06-.06-.14-.11-.25-.16-.1-.04-.22-.08-.36-.1-.14-.03-.28-.06-.42-.1-.14-.03-.3-.07-.48-.12-.18-.04-.37-.11-.56-.2-.19-.09-.38-.2-.57-.33-.19-.13-.36-.3-.51-.51-.15-.21-.27-.46-.36-.74s-.13-.62-.13-1.01c0-.57.08-1.05.25-1.42.17-.37.38-.67.64-.89.26-.22.55-.37.86-.46.32-.09.62-.13.92-.13.52,0,.99.1,1.4.3.41.2.81.5,1.19.89.05.06.08.13.08.21s0,.16-.05.22l-.73,1.38c-.04.07-.09.11-.15.12-.06.02-.12,0-.17-.05-.32-.27-.61-.45-.89-.57s-.53-.17-.75-.17c-.07,0-.15,0-.24,0-.09,0-.18.02-.26.05-.08.03-.15.08-.2.14s-.08.16-.08.27.07.22.2.31c.13.09.28.17.45.24s.33.12.48.16c.16.04.25.06.3.07.22.06.47.14.74.25.27.11.52.28.75.5.23.22.43.51.59.86.16.35.24.79.24,1.33,0,.5-.07.93-.2,1.29-.13.36-.31.66-.54.89-.23.23-.51.41-.84.52-.33.11-.69.17-1.09.17-.32,0-.62-.04-.9-.11-.28-.07-.54-.17-.78-.29-.24-.12-.47-.27-.68-.44-.21-.17-.4-.35-.57-.54-.05-.05-.08-.12-.08-.21,0-.09,0-.16.05-.23l.72-1.38c.04-.07.09-.11.15-.12.06-.02.12,0,.17.04Z"/>
        <path class="cls-1" d="M256.07,90.87h-1.31c-.06,0-.11.03-.16.09-.04.06-.07.13-.07.21v6.23c0,.08-.02.15-.06.21-.04.06-.09.09-.16.09h-1.4c-.06,0-.12-.03-.16-.09-.04-.06-.07-.13-.07-.21v-6.23c0-.08-.02-.15-.06-.21-.04-.06-.09-.09-.16-.09h-1.32c-.06,0-.12-.03-.16-.09-.04-.06-.06-.13-.06-.21v-1.69c0-.08.02-.15.06-.21.04-.06.1-.09.16-.09h4.92c.07,0,.12.03.16.09.04.06.06.13.06.21v1.69c0,.08-.02.15-.06.21-.04.06-.09.09-.16.09Z"/>
        <path class="cls-1" d="M260.06,97.69h-1.4c-.06,0-.12-.03-.16-.09-.04-.06-.07-.13-.07-.21v-8.52c0-.08.02-.15.07-.21.04-.06.1-.09.16-.09h2.9c.36,0,.69.08,1,.24.3.16.56.39.78.68.21.29.38.63.5,1.03s.18.84.18,1.32c0,.27-.02.53-.07.79-.05.26-.11.51-.2.74-.09.23-.19.44-.31.63-.12.19-.25.34-.4.47-.05.05-.08.11-.1.18s0,.14.03.21c.24.42.49.84.75,1.28s.49.84.7,1.21c.04.07.05.14.03.22s-.06.12-.12.12h-1.73c-.06,0-.13-.02-.2-.07s-.13-.1-.16-.17c-.2-.35-.39-.7-.59-1.06-.2-.36-.39-.72-.58-1.08-.04-.07-.09-.12-.16-.17-.07-.04-.13-.07-.19-.07h-.2c-.06,0-.11.03-.16.09-.04.06-.06.13-.06.21v2.02c0,.08-.02.15-.07.21-.04.06-.1.09-.16.09ZM260.51,92.78h.98c.07,0,.15-.02.23-.06.08-.04.16-.1.22-.17.07-.08.12-.18.17-.29.04-.12.07-.25.07-.41,0-.08-.01-.18-.03-.29-.02-.11-.06-.22-.11-.32-.05-.1-.12-.19-.21-.26s-.2-.11-.33-.11h-.98c-.06,0-.11.03-.16.09-.04.06-.06.13-.06.21v1.32c0,.08.02.15.06.21.04.06.1.09.16.09Z"/>
        <path class="cls-1" d="M272.09,88.94l-2.33,5.04c-.03.08-.06.17-.08.27-.02.11-.04.2-.04.29v2.85c0,.08-.02.15-.07.21-.04.06-.1.09-.16.09h-1.4c-.06,0-.11-.03-.16-.09-.04-.06-.07-.13-.07-.21v-2.84c0-.08-.01-.18-.03-.29s-.05-.2-.08-.27c-.37-.85-.75-1.69-1.14-2.52-.39-.82-.78-1.67-1.16-2.54-.03-.07-.04-.15-.02-.23.02-.08.06-.12.12-.12h1.66c.06,0,.13.03.19.08s.11.11.14.19l1.14,2.67c.03.07.07.1.11.1s.08-.03.11-.1l1.13-2.67c.03-.08.08-.14.14-.19s.13-.08.19-.08h1.68c.06,0,.11.03.14.09.03.06.02.15-.03.26Z"/>
      </g>
      <g>
        <path d="M13.48,44.88c-.08,7.02-.74,13.97-2.69,20.75-1.16,4.02-2.8,7.81-5.43,11.1-.58.73-1.34,1.33-2.11,1.88-.66.48-1.42.41-2.1-.09-.67-.49-1.03-1.18-.81-1.95.25-.9.54-1.88,1.11-2.58,1.9-2.33,2.9-5.09,3.94-7.83,2.26-5.96,3.61-12.13,4.15-18.48.39-4.61.12-9.2-.25-13.8-.23-2.81-.42-5.64.65-8.36.59-1.49,1.47-2.74,2.97-3.45,1.95-.92,3.26-2.52,4.54-4.16,2.38-3.07,4.67-6.21,7.13-9.23,2.19-2.69,4.64-5.14,7.83-6.66,1.24-.59,2.56-1,3.86-1.45.25-.09.57,0,.85.05,6.03,1.16,11.36,3.84,16.22,7.52,2.45,1.85,4.62,3.98,6.36,6.53,2.66,3.88,3.39,8.1,2.58,12.75-.95,5.47-1.55,11-1.71,16.56-.23,7.84,1.33,15.26,4.93,22.26,1.54,2.99,3,6.03,4.33,9.12.53,1.24.72,2.65.89,4,.06.46-.32,1.17-.71,1.41-.28.16-1.09-.16-1.37-.5-1.18-1.48-2.39-2.96-3.33-4.59-2.67-4.64-5.24-9.35-6.9-14.47-1.38-4.27-2.02-8.68-2.37-13.14-.44-5.67-.18-11.34.23-17,.17-2.35.49-4.7.58-7.05.19-4.85-1.84-8.71-5.76-11.44-2.68-1.87-5.54-3.52-8.42-5.07-2.92-1.57-5.8-1.05-8.48.76-2.77,1.86-4.86,4.4-6.91,6.96-1.96,2.43-3.96,4.79-6.76,6.33-1.06.58-1.82,1.49-2.19,2.68-.05.16-.16.31-.21.47-.49,1.55-1.53,2.37-3.15,2.65-1.95.35-2.47,1.02-2.45,3,.01,1.32.24,2.63.35,3.95.29,3.52.57,7.05.85,10.57-.08,0-.16.01-.24.02Z"/>
        <path d="M39.14,28.68c0,1.5-.03,2.99,0,4.49.05,1.72.89,2.89,2.57,3.37,1.91.54,3.84,1,5.75,1.55.88.25,1.72.63,2.57.99.26.11.5.3.7.49.71.69.9,1.79.47,2.63-.35.69-1.17,1.02-2.17.86-1.02-.16-2.04-.34-3.07-.49-1.83-.27-2.58.35-2.48,2.18.13,2.2,1,4.19,1.95,6.13,1.12,2.27,2.3,4.52,3.36,6.82,1.73,3.78,2.34,7.82,2.52,11.93.28,6.37-.21,12.67-2.13,18.79-1.2,3.84-3.01,7.41-5.46,10.62-.98,1.29-2.2,2.3-3.76,2.78-.56.17-1.49.33-1.74.04-.34-.38-.39-1.28-.18-1.82.64-1.69,1.36-3.36,2.22-4.95,1.67-3.08,3.71-5.99,4.66-9.42.31-1.13.52-2.3.59-3.47.07-1.25-.49-1.7-1.66-1.3-2.06.71-4.06,1.59-6.08,2.42-2.72,1.12-5.45,2.22-8.39,2.55-.87.1-1.78.03-2.65-.13-.96-.17-1.55-.87-1.7-1.85-.15-.97.38-1.67,1.2-1.99,1.36-.53,2.75-1.06,4.18-1.31,3.7-.65,7.3-1.61,10.79-2.97,4.11-1.61,5.55-3.69,5.37-8.1-.15-3.86-1.13-7.57-2.5-11.16-.46-1.2-1.13-2.32-1.76-3.44-.43-.76-1.12-.89-1.85-.45-2.37,1.42-4.77,2.79-7.07,4.3-2.21,1.45-4.3,3.09-6.49,4.57-1.12.76-2.37,1.31-3.8,1.21-.91-.07-1.65-.45-1.99-1.29-.3-.77.2-1.37.72-1.9,1.88-1.96,4.28-3.11,6.67-4.24,2.38-1.13,4.77-2.21,6.68-4.06,1.05-1.02,2.15-2.04,2.95-3.25,1.83-2.76,1.57-5.55-.71-8.45-.56-.71-1.37-1.31-2.19-1.73-2.82-1.44-5.71-2.74-8.53-4.18-1.04-.53-2-1.25-2.95-1.95-.46-.33-.85-.78-1.19-1.24-.46-.63-.55-1.33-.08-2.02.48-.69,1.21-1.02,1.96-.74,1.29.47,2.53,1.07,3.76,1.68,1.36.68,2.65,1.51,4.04,2.13,1.57.7,2.55.15,2.74-1.56.15-1.39.04-2.81.07-4.22.02-1.06.02-2.13.13-3.19.09-.91.49-1.72,1.31-2.24,1.2-.77,2.28-.35,2.5,1.06.17,1.1.17,2.23.21,3.35.03.72,0,1.44,0,2.16-.02,0-.04,0-.06,0Z"/>
      </g>
    </g>
  </g>
</svg>
