<svg xmlns="http://www.w3.org/2000/svg" viewBox="0 0 233.92 94.92"><path fill="#fff" d="M91.03 11.51h1.51c9.84 2.13 15.12 3.55 15.83 4.27l2.75 1.32c.32.93.42 1.66.32 2.19-1.54 5.19-2.85 7.78-3.91 7.78-.79.24-1.42.36-1.87.36-1.62-.53-2.29-1.46-1.99-2.79.69-2.23 1.06-3.41 1.12-3.55-3.57-.32-7.43-1.13-11.6-2.43q-4.185-.435-4.47-.72c-4.73 6.06-7.69 10.62-8.89 13.68-3.03 4.62-5.78 10.6-8.25 17.91l-.56 2.68c2.13 5.26 3.96 8.91 5.51 10.93.5.64.68.96.52.96l7.78-1.4c8.78-3.16 14.43-5.51 16.99-7.02h1.15c2.02.19 2.86 1.05 2.51 2.59l-.08.36c-.53 2.5-5.11 5-13.72 7.5-2.15 1.17-5.9 2.27-11.24 3.31-.37 0-1.87.24-4.47.72-2.85 0-5.44-2.52-7.78-7.58-2.15-5.34-3.05-8.92-2.68-10.73 1.2-5.64 5.59-15.25 13.16-28.84 1.84-2.9 4.19-5.95 7.06-9.14 1.17-1.01 2.94-1.79 5.31-2.35ZM142.09 11.75h.72c2.13 0 5.47 1 10.01 2.99 1.36.19 3.59 1.77 6.7 4.75 1.59 5.79 2.17 9.73 1.71 11.8.5 0-.14 4.5-1.96 13.52-.93 4.39-3.22 8.94-6.86 13.64-6.87 7.79-12.91 11.69-18.15 11.69h-.4c-8.3-.42-12.36-1.01-12.21-1.76-3.75-1.54-7.3-4.22-10.65-8.02-3.54-1.87-5-4.28-4.39-7.26l.2-.76c2.29-8.48 4.37-14.51 6.26-18.06 1.57-2.97 6.26-8.35 14.08-16.11 4.92-4.14 9.3-6.23 13.12-6.23.03-.14.62-.2 1.79-.2Zm-26.65 33.63c-.69 3.8-1.14 6.14-1.32 7.02 1.51.56 3.8 2.24 6.86 5.06 3.91 2.34 7.41 3.51 10.49 3.51l4.5.56c2.74 0 6.63-3.15 11.69-9.45 1.81-2.82 2.96-5.36 3.43-7.62 2.15-10.13 2.37-16.77.64-19.9l-3.55-1.87c-1.84-.48-4-1.25-6.51-2.32-2.52 0-4.05-.75-4.55-2.23-.96 0-3.74 2.09-8.33 6.26-6.91 7.47-10.57 12.15-10.97 14.04-1.17 2.63-1.96 4.95-2.4 6.94ZM174.07 12h.28c4.92.85 9.32 2.04 13.2 3.55 2.96 2.52 5.81 4.47 8.58 5.82 1.25 1.49 1.74 2.86 1.48 4.11-3.27 8.16-6.05 12.24-8.33 12.24-3.69 1.87-6.32 3.13-7.86 3.79.03-.11 1.01.85 2.96 2.87 2.07 3.51 3.53 7.1 4.39 10.77-.19.9 1.01 4.44 3.59 10.61.14.32.14.73.04 1.23l-.08.4c-.67 1.84-1.85 2.75-3.55 2.75-1.39 0-2.9-2.8-4.55-8.42-.64-1.78-1.54-5.14-2.71-10.09-1.31-2.87-2.77-5.23-4.39-7.1-.14-.59-.03-.87.32-.87-.37 0-2.73.79-7.06 2.4-.26 1.25-.45 2.41-.56 3.47l-2.83 9.89c-.32 2.63-.57 4.39-.76 5.26-.26 1.28-1.06 2.26-2.4 2.96h-.48c-1.68 0-2.32-1.57-1.91-4.7-.4 0-.22-2.12.56-6.34l1.04-4.91c.37-1.73 1.09-7.35 2.15-16.88.8-6.06 1.68-11.88 2.63-17.43-.14 0-.12-.39.04-1.15.61-2.82 2.68-4.23 6.23-4.23Zm.32 6.13-3.15 21.06h-1.08c1.46-.67 3.63-1.36 6.5-2.07q4.11-2.715 11.73-5.46c.77-1.09 1.82-3.05 3.15-5.9-.14-.19-1.03-.62-2.68-1.32-3.24-3.16-6.94-5.11-11.09-5.82q-2.595 0-3.39-.48ZM232.32 11.27h.32c.82.19 1.25.86 1.28 2.04l-.12.52c-.42 1.99-2.14 5.96-5.14 11.88l-6.1 9.65c-2.58 5-4.38 8.75-5.39 11.24.03 1.17-.16 2.73-.56 4.67-.48 2.23-1.25 4.89-2.32 7.97-1.54 7.26-3.51 10.89-5.9 10.89h-.32c-2.13 0-3.46-1.26-3.99-3.79l.04-.28c.16-.75 1.1-3.5 2.83-8.25 1.09-3.49 1.85-6.23 2.27-8.22.29-1.35.42-2.4.4-3.11.32-1.09 1.01-2.71 2.07-4.87.19-.4.29-.67.32-.8v.16c-.77-.69-1.2-2.07-1.28-4.14.22 0 .28.24.2.72l-.04.24c-.83-.9-2.43-3.46-4.83-7.66-4.62-5.29-7.55-9.92-8.78-13.88 0-.16 0-.31.04-.44.14-.69.75-1.26 1.84-1.71 1.81 0 4.25 2.15 7.33 6.46 4.28 4.95 6.94 8.61 7.97 11.01 1.46 2.02 2.09 2.45 1.87 1.28q1.275-2.355 4.59-6.66c2.77-3.86 5.59-8.28 8.45-13.28 1.06-1.09 2.04-1.64 2.91-1.64zM66.31 73.66c-.13-1.17-.29-2.62-.82-3.91-1.12-2.72-2.38-5.5-3.87-8.5-3.06-6.19-4.45-12.97-4.13-20.14.22-4.87.82-9.94 1.8-15.08.88-4.64.13-8.67-2.31-12.35-1.52-2.3-3.46-4.36-5.93-6.28C46.2 3.61 41.26 1.22 35.92.1l-.11-.02c-.19-.04-.39-.08-.58-.08s-.35.02-.49.07l-.66.21c-.99.32-2.01.65-2.99 1.09-3.37 1.54-5.82 4.14-7.57 6.22-1.5 1.78-2.95 3.63-4.35 5.42-.78.99-1.56 1.99-2.34 2.97-1.21 1.51-2.35 2.81-3.94 3.53-1.42.65-2.47 1.81-3.19 3.55-1.13 2.74-.93 5.67-.78 8.03.25 3.79.47 8.2.03 12.56C8.36 49.49 7 55.12 4.92 60.36l-.13.32c-.95 2.4-1.85 4.67-3.48 6.6-.62.73-.93 1.67-1.21 2.64-.3.98.08 1.98 1 2.67.47.36 1 .55 1.52.56.48 0 .94-.14 1.35-.43.7-.48 1.5-1.08 2.13-1.85 2.27-2.75 4-6.15 5.3-10.4 1.65-5.42 2.54-11.3 2.78-18.46h.3l-.09-1.44c-.19-3.05-.39-6.1-.59-9.15q-.045-.66-.12-1.32c-.08-.78-.15-1.52-.15-2.26 0-1.44.24-1.71 1.62-1.94 1.81-.28 3.02-1.27 3.57-2.92.01-.03.03-.06.05-.09.06-.11.12-.23.15-.34.29-.88.85-1.55 1.67-1.98 2.68-1.42 4.55-3.52 6.55-5.92 2.02-2.44 3.88-4.59 6.27-6.14 1.41-.92 2.79-1.37 4.12-1.35.97.02 1.93.29 2.86.81 3.15 1.76 5.49 3.22 7.59 4.73 3.41 2.46 5.02 5.79 4.8 9.91-.07 1.28-.22 2.6-.36 3.87-.1.86-.19 1.71-.27 2.57-.44 4.95-.8 10.29-.46 15.74.31 4.88.95 8.79 2.02 12.3 1.51 4.91 3.89 9.39 6.2 13.55.81 1.46 1.84 2.79 2.84 4.08l.23.3c.35.44 1.1.81 1.68.82.22 0 .41-.04.6-.15.65-.38 1.14-1.35 1.06-2.06Z"/><path fill="#fff" d="M42.6 40.31c.17 0 .36.02.56.06.57.09 1.13.19 1.69.29l1.11.2q.3.045.57.06c1.01.02 1.87-.44 2.28-1.23.58-1.09.36-2.47-.54-3.37-.29-.29-.58-.49-.87-.62l-.32-.14c-.68-.3-1.38-.61-2.11-.84-.93-.28-1.87-.55-2.81-.81-.82-.23-1.64-.46-2.45-.7-1.17-.36-1.73-1.11-1.75-2.37 0-.91.02-1.82.04-2.73v-.59h.07v-.8l.03-.65c.01-.46.03-.91.01-1.36v-.59c-.02-.84-.03-1.72-.15-2.59-.17-1.24-.95-2.02-2.02-2.03-.48 0-.98.15-1.47.45-.92.57-1.48 1.47-1.61 2.63-.1.86-.13 1.72-.16 2.55v.45c-.03.46-.03.93-.03 1.39 0 .84 0 1.64-.1 2.42-.13.99-.49.99-.65.98-.14 0-.39-.04-.76-.21-.71-.33-1.39-.72-2.1-1.13-.51-.3-1.03-.59-1.55-.87-1.16-.6-2.3-1.17-3.51-1.63-.25-.1-.51-.15-.77-.15-.76-.01-1.48.38-1.99 1.09-.61.86-.59 1.88.05 2.78.42.59.82 1.02 1.24 1.33l.13.1c.84.64 1.7 1.3 2.66 1.8 1.29.69 2.61 1.34 3.92 2 1.29.65 2.59 1.29 3.86 1.97.71.38 1.33.88 1.73 1.4 1.87 2.45 2.03 4.63.51 6.84-.64.93-1.52 1.76-2.38 2.56l-.27.25c-1.59 1.5-3.56 2.39-5.64 3.33l-.34.16c-2.13.97-4.54 2.06-6.42 3.96-.4.4-1.34 1.33-.87 2.59.39 1 1.27 1.61 2.49 1.72.12.01.24.02.36.02 1.19.02 2.39-.38 3.65-1.2.94-.61 1.86-1.26 2.78-1.9 1.06-.74 2.15-1.5 3.24-2.2 1.57-1 3.23-1.95 4.84-2.86.57-.32 1.13-.65 1.7-.97.17-.1.28-.11.32-.11.03 0 .14 0 .27.24l.23.42c.47.86.96 1.75 1.29 2.66 1.33 3.67 2.02 6.95 2.09 10.04.09 3.68-1.01 5.28-4.53 6.6-3.08 1.14-6.29 1.97-9.81 2.53-1.45.23-2.87.76-4.02 1.18-1.18.44-1.81 1.46-1.64 2.67.17 1.27.99 2.17 2.17 2.4.63.13 1.24.2 1.81.2.29 0 .58 0 .86-.03 2.89-.28 5.59-1.34 7.96-2.27l1.31-.52c1.39-.56 2.83-1.13 4.27-1.6.22-.07.35-.08.42-.11 0 0 .07.12.04.51-.07.97-.26 1.99-.56 3.02-.66 2.25-1.85 4.22-3.1 6.3-.42.7-.85 1.41-1.25 2.12-.75 1.34-1.46 2.85-2.16 4.61-.29.71-.27 1.87.27 2.49.24.29.61.44 1.11.44.55 0 1.15-.15 1.32-.2 1.48-.43 2.79-1.36 3.9-2.77 2.32-2.94 4.1-6.28 5.3-9.93 1.71-5.18 2.46-10.91 2.27-17.51-.13-4.56-.83-8.15-2.21-11.3-.64-1.45-1.34-2.89-2.02-4.29-.33-.68-.66-1.36-.98-2.04-.78-1.66-1.55-3.43-1.63-5.35-.03-.71.11-.97.2-1.05.13-.13.41-.15.63-.15ZM69.28 83.72v.27s.02.08.05.11.07.05.11.05h1.77s.08.02.11.05.05.07.05.11v.9s-.02.08-.05.11a.16.16 0 0 1-.11.05h-1.77s-.08.02-.11.05-.05.07-.05.11v.25s.02.08.05.11.07.05.11.05h2.03s.08.02.11.05.05.07.05.11v.9s-.02.08-.05.11-.07.05-.11.05h-3.32s-.08-.02-.11-.05-.05-.07-.05-.11v-4.46s.02-.08.05-.11.07-.05.11-.05h3.32s.08.02.11.05.05.07.05.11v.89s-.02.08-.05.11-.07.05-.11.05h-2.03s-.08.02-.11.05-.05.07-.05.11ZM75.33 84.65l-1.64-2.1s-.03-.07-.02-.12c.01-.04.04-.07.08-.07H75s.09.01.14.04.08.06.11.09l.82 1.19s.06.05.09.05.06-.02.09-.05c.14-.2.28-.4.41-.6.14-.21.27-.41.4-.6a.5.5 0 0 1 .11-.09c.05-.02.09-.04.14-.04h1.25c.05 0 .08.02.09.07 0 .04 0 .08-.03.12L77 84.64s-.04.08-.04.12.01.09.04.12l1.59 2.05s.03.08.02.12-.04.07-.09.07h-1.24s-.09-.01-.14-.04-.08-.06-.11-.09l-.78-1.14s-.06-.05-.09-.05-.07.02-.09.05l-.78 1.14s-.06.07-.11.09a.25.25 0 0 1-.14.04H73.8s-.07-.02-.08-.07 0-.09.02-.12l1.59-2.05s.04-.08.04-.12-.01-.09-.04-.12ZM82.76 85.85h-.57s-.08.02-.11.05a.16.16 0 0 0-.05.11v.97s-.02.08-.05.11a.16.16 0 0 1-.11.05h-.98s-.08-.02-.11-.05-.05-.07-.05-.11v-4.46s.02-.08.05-.11.07-.05.11-.05h2c.24 0 .47.05.69.14s.4.22.56.38.28.35.38.56c.09.21.14.44.14.69s-.04.47-.12.68-.2.39-.36.55c-.16.15-.36.28-.6.37s-.52.13-.83.13Zm.05-2.29h-.62s-.08.02-.11.05a.16.16 0 0 0-.05.11v.76s.02.08.05.11.07.05.11.05h.7c.17 0 .29-.05.36-.16.08-.11.11-.23.11-.36 0-.07-.01-.14-.04-.2s-.06-.13-.11-.18a.8.8 0 0 0-.18-.13.6.6 0 0 0-.24-.05ZM90.42 86.1v.89s-.02.08-.05.11a.16.16 0 0 1-.11.05h-3.25s-.09-.02-.11-.05-.04-.07-.04-.11v-4.46s.01-.08.04-.11.07-.05.11-.05h.98s.08.02.11.05.05.07.05.11v3.26s.01.08.04.11.07.05.11.05h1.96s.08.02.11.05.05.07.05.11ZM92.08 84.75c0-.34.07-.66.2-.96s.31-.56.53-.79c.22-.22.48-.4.78-.53s.62-.2.96-.2.66.06.96.2c.3.13.56.31.79.53.22.22.4.49.53.79s.2.62.2.96-.07.66-.2.96-.31.56-.53.79c-.22.22-.49.4-.79.53a2.4 2.4 0 0 1-1.92 0c-.3-.13-.56-.31-.78-.53s-.4-.49-.53-.79-.2-.62-.2-.96m1.3 0c0 .17.03.32.09.47s.14.28.25.39.23.2.38.27.3.1.46.1.31-.03.46-.1c.14-.07.27-.16.38-.27s.19-.24.25-.39.09-.3.09-.47a1.23 1.23 0 0 0-.34-.86c-.11-.11-.23-.2-.38-.27-.14-.07-.3-.1-.46-.1s-.31.03-.46.1-.27.16-.38.27-.19.24-.25.39-.09.31-.09.47M100.52 87.14h-.98s-.08-.02-.11-.05a.16.16 0 0 1-.05-.11v-4.46s.02-.08.05-.11a.16.16 0 0 1 .11-.05h2.03c.25 0 .48.04.7.13.21.09.39.2.54.36.15.15.27.33.35.54s.13.44.13.69a1.84 1.84 0 0 1-.19.8c-.06.12-.13.23-.22.33s-.18.18-.28.24c-.03.03-.06.06-.07.09-.01.04 0 .07.02.11.17.22.34.44.52.67s.35.44.49.63c.03.04.03.07.02.11s-.04.06-.08.06h-1.21s-.09-.01-.14-.04a.2.2 0 0 1-.11-.09c-.14-.18-.28-.37-.41-.55-.14-.19-.27-.38-.41-.57-.03-.03-.06-.06-.11-.09s-.09-.04-.14-.04h-.14s-.08.02-.11.05a.16.16 0 0 0-.05.11v1.06s-.02.08-.05.11a.16.16 0 0 1-.11.05Zm.32-2.57h.69c.05 0 .11-.01.16-.03s.11-.05.16-.09.09-.09.12-.15.05-.13.05-.22c0-.04 0-.09-.02-.15a.7.7 0 0 0-.08-.17c-.04-.05-.09-.1-.15-.14s-.14-.06-.23-.06h-.69s-.08.02-.11.05-.05.07-.05.11v.69s.02.08.05.11.07.05.11.05ZM107.05 83.72v.27s.02.08.05.11.07.05.11.05h1.77s.08.02.11.05.05.07.05.11v.9s-.02.08-.05.11a.16.16 0 0 1-.11.05h-1.77s-.08.02-.11.05-.05.07-.05.11v.25s.02.08.05.11.07.05.11.05h2.03s.08.02.11.05.05.07.05.11v.9s-.02.08-.05.11-.07.05-.11.05h-3.32s-.08-.02-.11-.05-.05-.07-.05-.11v-4.46s.02-.08.05-.11.07-.05.11-.05h3.32s.08.02.11.05.05.07.05.11v.89s-.02.08-.05.11-.07.05-.11.05h-2.03s-.08.02-.11.05-.05.07-.05.11ZM120.04 82.55l-1.63 2.64s-.04.09-.06.14q-.03.09-.03.15v1.49s-.02.08-.05.11-.07.05-.11.05h-.98s-.08-.02-.11-.05a.16.16 0 0 1-.05-.11v-1.49s0-.09-.02-.15-.03-.11-.06-.14c-.26-.45-.53-.89-.8-1.32s-.54-.87-.81-1.33c-.02-.04-.03-.08-.01-.12s.04-.06.08-.06h1.16s.09.01.13.04.08.06.1.1l.8 1.4s.05.05.08.05.06-.02.08-.05l.79-1.4s.06-.07.1-.1.09-.04.13-.04h1.17s.07.02.09.05.01.08-.02.14ZM121.6 84.75c0-.34.06-.66.2-.96.13-.3.31-.56.53-.79.22-.22.48-.4.78-.53s.62-.2.96-.2.66.06.96.2c.3.13.56.31.79.53.22.22.4.49.53.79s.2.62.2.96-.06.66-.2.96c-.13.3-.31.56-.53.79s-.49.4-.79.53a2.4 2.4 0 0 1-1.92 0c-.3-.13-.56-.31-.78-.53s-.4-.49-.53-.79-.2-.62-.2-.96m1.29 0c0 .17.03.32.09.47s.14.28.25.39.23.2.37.27.3.1.46.1.31-.03.46-.1.27-.16.38-.27.19-.24.25-.39.09-.3.09-.47a1.23 1.23 0 0 0-.34-.86c-.11-.11-.23-.2-.38-.27s-.3-.1-.46-.1-.31.03-.46.1a1.26 1.26 0 0 0-.62.66c-.06.15-.09.31-.09.47M128.9 82.53s.01-.08.04-.11.07-.05.11-.05h.98s.08.02.11.05.05.07.05.11v2.64c0 .17.03.31.08.42s.12.2.2.26.17.11.26.13c.09.03.17.04.25.04s.16-.01.25-.04.18-.07.25-.13a.7.7 0 0 0 .2-.26c.05-.11.08-.25.08-.42v-2.64s.02-.08.05-.11.07-.05.11-.05h.98s.08.02.11.05.05.07.05.11v2.64q0 .465-.15.84c-.1.25-.24.47-.42.65s-.4.32-.66.41-.54.15-.85.15-.6-.05-.85-.15c-.26-.1-.48-.24-.66-.41s-.32-.39-.42-.65q-.15-.375-.15-.84zM136.87 87.14h-.98s-.08-.02-.11-.05a.16.16 0 0 1-.05-.11v-4.46s.02-.08.05-.11.07-.05.11-.05h2.03c.25 0 .49.04.7.13s.39.2.54.36c.15.15.27.33.35.54s.13.44.13.69a1.84 1.84 0 0 1-.19.8c-.06.12-.13.23-.22.33s-.18.18-.28.24c-.04.03-.06.06-.07.09-.01.04 0 .07.02.11.17.22.34.44.52.67s.35.44.49.63c.03.04.03.07.02.11s-.04.06-.08.06h-1.21s-.09-.01-.14-.04a.2.2 0 0 1-.11-.09c-.14-.18-.28-.37-.41-.55-.14-.19-.27-.38-.41-.57a.5.5 0 0 0-.11-.09c-.05-.02-.09-.04-.14-.04h-.14s-.08.02-.11.05a.16.16 0 0 0-.05.11v1.06s-.02.08-.05.11a.16.16 0 0 1-.11.05Zm.31-2.57h.69c.05 0 .11-.01.16-.03a.5.5 0 0 0 .28-.24c.03-.06.05-.13.05-.22 0-.04 0-.09-.02-.15a.7.7 0 0 0-.08-.17.7.7 0 0 0-.15-.14.4.4 0 0 0-.23-.06h-.69s-.08.02-.11.05-.05.07-.05.11v.69s.02.08.05.11.07.05.11.05ZM150.65 85.87c-.13.2-.27.39-.42.56s-.32.31-.51.43q-.285.18-.63.27c-.345.09-.49.1-.76.1-.35 0-.67-.07-.98-.2-.3-.13-.57-.31-.8-.53q-.345-.33-.54-.78c-.13-.3-.2-.62-.2-.96s.06-.66.2-.96q.195-.45.54-.78c.23-.22.5-.4.8-.53s.63-.2.98-.2c.29 0 .55.03.78.1q.345.105.63.27c.19.12.36.26.51.43s.29.35.41.55c.02.03.03.07.01.11-.01.04-.04.07-.08.09l-.93.37s-.09.02-.13 0-.08-.04-.1-.08c-.13-.2-.28-.35-.46-.46s-.39-.16-.65-.16c-.17 0-.32.03-.47.1s-.27.16-.38.28a1.283 1.283 0 0 0 0 1.74c.1.12.24.21.38.27.15.07.3.1.47.1.24 0 .46-.06.65-.17.19-.12.35-.26.46-.45.02-.03.05-.06.09-.08s.08-.02.13 0l.93.37s.07.04.08.08 0 .08-.01.11ZM152.62 84.75c0-.34.06-.66.2-.96.13-.3.31-.56.53-.79.22-.22.48-.4.78-.53s.62-.2.96-.2.66.06.96.2c.3.13.56.31.79.53.22.22.4.49.53.79s.2.62.2.96-.06.66-.2.96c-.13.3-.31.56-.53.79s-.49.4-.79.53a2.4 2.4 0 0 1-1.92 0c-.3-.13-.56-.31-.78-.53s-.4-.49-.53-.79-.2-.62-.2-.96m1.29 0c0 .17.03.32.09.47s.14.28.25.39.23.2.37.27.3.1.46.1.31-.03.46-.1.27-.16.38-.27.19-.24.25-.39.09-.3.09-.47a1.23 1.23 0 0 0-.34-.86c-.11-.11-.23-.2-.38-.27s-.3-.1-.46-.1-.31.03-.46.1a1.26 1.26 0 0 0-.62.66c-.06.15-.09.31-.09.47M161.1 87.14h-.98s-.09-.02-.11-.05a.15.15 0 0 1-.04-.11v-4.45s.01-.08.04-.11a.16.16 0 0 1 .11-.05h.98s.08.02.11.05.05.07.05.11v4.45s-.02.08-.05.11-.07.05-.11.05M168.31 82.52v4.46s-.02.08-.05.11-.07.05-.11.05h-.96s-.09-.01-.14-.04a.4.4 0 0 1-.11-.09l-1.7-2.39s-.05-.05-.08-.04c-.03 0-.04.03-.04.08v2.33s-.02.08-.05.11a.16.16 0 0 1-.11.05h-.98s-.08-.02-.11-.05a.16.16 0 0 1-.05-.11v-4.46s.02-.08.05-.11.07-.05.11-.05h.98s.09.01.14.04.08.05.11.09l1.7 2.39s.05.05.08.05.04-.03.04-.07v-2.34s.02-.08.05-.11a.16.16 0 0 1 .11-.05h.97s.08.02.11.05.05.07.05.11ZM176.31 82.51s.05-.07.09-.1a.22.22 0 0 1 .13-.04h.91s.09.01.13.04.07.06.09.1l1.91 4.44s.01.08-.01.12-.07.06-.14.06h-1.12s-.09-.01-.13-.04a.3.3 0 0 1-.09-.1l-.18-.39s-.05-.07-.09-.1a.2.2 0 0 0-.13-.04h-1.38s-.09.01-.13.04-.07.06-.09.1l-.18.39s-.05.07-.09.1-.08.04-.13.04h-1.12s-.04 0-.07-.01c-.02 0-.04-.02-.06-.04q-.03-.03-.03-.06c0-.03 0-.06.02-.09zm.38 2.84h.58s.08-.01.09-.04c.02-.03.02-.06 0-.1-.04-.11-.1-.24-.16-.38-.06-.15-.12-.28-.17-.41q-.03-.06-.06-.06c-.03 0-.04.02-.06.06l-.33.79s-.02.07 0 .1.05.04.1.04ZM186.2 82.52v4.46s-.02.08-.05.11-.07.05-.11.05h-.96s-.09-.01-.14-.04a.4.4 0 0 1-.11-.09l-1.7-2.39s-.05-.05-.08-.04c-.03 0-.04.03-.04.08v2.33s-.02.08-.05.11a.16.16 0 0 1-.11.05h-.98s-.08-.02-.11-.05a.16.16 0 0 1-.05-.11v-4.46s.02-.08.05-.11.07-.05.11-.05h.98s.09.01.14.04.08.05.11.09l1.7 2.39s.05.05.08.05.04-.03.04-.07v-2.34s.02-.08.05-.11a.16.16 0 0 1 .11-.05h.97s.08.02.11.05.05.07.05.11ZM193.48 85.87c-.13.2-.27.39-.42.56s-.32.31-.51.43q-.285.18-.63.27c-.345.09-.49.1-.76.1-.35 0-.67-.07-.98-.2-.3-.13-.57-.31-.8-.53q-.345-.33-.54-.78c-.13-.3-.2-.62-.2-.96s.06-.66.2-.96q.195-.45.54-.78c.23-.22.5-.4.8-.53s.63-.2.98-.2c.29 0 .55.03.78.1q.345.105.63.27c.19.12.36.26.51.43s.29.35.41.55c.02.03.03.07.01.11-.01.04-.04.07-.08.09l-.93.37s-.09.02-.13 0-.08-.04-.1-.08c-.13-.2-.28-.35-.46-.46s-.39-.16-.65-.16c-.17 0-.32.03-.47.1s-.27.16-.38.28a1.283 1.283 0 0 0 0 1.74c.1.12.24.21.38.27.15.07.3.1.47.1.24 0 .46-.06.65-.17.19-.12.35-.26.46-.45.02-.03.05-.06.09-.08s.08-.02.13 0l.93.37s.07.04.08.08 0 .08-.01.11ZM196.94 83.72v.27s.02.08.05.11.07.05.11.05h1.77s.08.02.11.05.05.07.05.11v.9s-.02.08-.05.11-.07.05-.11.05h-1.77s-.08.02-.11.05-.05.07-.05.11v.25s.02.08.05.11.07.05.11.05h2.03s.08.02.11.05.05.07.05.11v.9s-.02.08-.05.11-.07.05-.11.05h-3.32s-.08-.02-.11-.05-.05-.07-.05-.11v-4.46s.02-.08.05-.11.07-.05.11-.05h3.32s.08.02.11.05.05.07.05.11v.89s-.02.08-.05.11-.07.05-.11.05h-2.03s-.08.02-.11.05-.05.07-.05.11ZM202.34 85.5c.24.15.47.27.7.36s.45.13.65.13.34-.03.44-.08.15-.14.15-.24c0-.06-.02-.1-.07-.13a.5.5 0 0 0-.17-.08c-.07-.02-.16-.04-.25-.05-.1-.01-.19-.03-.29-.05s-.21-.04-.34-.06a2.8 2.8 0 0 1-.79-.27q-.195-.105-.36-.27c-.165-.165-.19-.24-.25-.39s-.1-.33-.1-.53c0-.3.06-.55.18-.74s.27-.35.45-.47c.18-.11.38-.2.6-.24s.44-.07.65-.07c.37 0 .69.05.98.16s.57.26.83.47c.03.03.05.07.06.11 0 .04 0 .08-.03.12l-.51.72s-.06.06-.1.07c-.04 0-.08 0-.12-.03-.22-.14-.43-.24-.62-.3s-.37-.09-.53-.09h-.17q-.09 0-.18.03c-.09.03-.1.04-.14.08s-.06.08-.06.14.05.12.14.16c.09.05.2.09.31.12.12.04.23.06.34.08s.18.03.21.04c.16.03.33.08.52.13.19.06.36.15.52.26.16.12.3.27.41.45s.17.42.17.69c0 .26-.05.49-.14.67-.09.19-.22.35-.38.47s-.36.21-.59.27-.48.09-.76.09q-.345 0-.63-.06c-.285-.06-.38-.09-.55-.15s-.33-.14-.47-.23c-.15-.09-.28-.18-.4-.28-.03-.03-.05-.06-.06-.11s0-.09.03-.12l.5-.72s.06-.06.1-.07c.04 0 .08 0 .12.02ZM210.92 83.56h-.91s-.08.02-.11.05-.05.07-.05.11v3.26s-.01.08-.04.11a.16.16 0 0 1-.11.05h-.98s-.08-.02-.11-.05-.05-.07-.05-.11v-3.26s-.01-.08-.04-.11a.16.16 0 0 0-.11-.05h-.93s-.08-.02-.11-.05-.05-.07-.05-.11v-.89s.02-.08.05-.11.07-.05.11-.05h3.44s.09.02.11.05c.03.03.04.07.04.11v.89s-.01.08-.04.11a.16.16 0 0 1-.11.05M214.41 87.14h-.98s-.08-.02-.11-.05a.16.16 0 0 1-.05-.11v-4.46s.02-.08.05-.11.07-.05.11-.05h2.03c.25 0 .49.04.7.13s.39.2.54.36c.15.15.27.33.35.54s.13.44.13.69a1.84 1.84 0 0 1-.19.8c-.06.12-.13.23-.22.33s-.18.18-.28.24c-.04.03-.06.06-.07.09-.01.04 0 .07.02.11.17.22.34.44.52.67s.35.44.49.63c.03.04.03.07.02.11s-.04.06-.08.06h-1.21s-.09-.01-.14-.04a.2.2 0 0 1-.11-.09c-.14-.18-.28-.37-.41-.55-.14-.19-.27-.38-.41-.57a.5.5 0 0 0-.11-.09c-.05-.02-.09-.04-.14-.04h-.14s-.08.02-.11.05a.16.16 0 0 0-.05.11v1.06s-.02.08-.05.11a.16.16 0 0 1-.11.05Zm.31-2.57h.69c.05 0 .11-.01.16-.03a.5.5 0 0 0 .28-.24c.03-.06.05-.13.05-.22 0-.04 0-.09-.02-.15a.7.7 0 0 0-.08-.17.7.7 0 0 0-.15-.14.4.4 0 0 0-.23-.06h-.69s-.08.02-.11.05-.05.07-.05.11v.69s.02.08.05.11.07.05.11.05ZM223.52 82.55l-1.63 2.64s-.04.09-.06.14q-.03.09-.03.15v1.49s-.02.08-.05.11-.07.05-.11.05h-.98s-.08-.02-.11-.05-.05-.07-.05-.11v-1.49s0-.09-.02-.15-.03-.11-.06-.14c-.26-.45-.53-.89-.8-1.32s-.54-.87-.81-1.33c-.02-.04-.03-.08-.01-.12q.015-.06.09-.06h1.16s.09.01.13.04c.05.03.08.06.1.1l.8 1.4s.05.05.08.05.06-.02.08-.05l.79-1.4s.06-.07.1-.1.09-.04.13-.04h1.17s.08.02.09.05c.02.03.01.08-.02.14Z"/></svg>