<?xml version="1.0" encoding="UTF-8"?>
<svg id="layer1" data-name="layer1" xmlns="http://www.w3.org/2000/svg" viewBox="0 0 271.61 101.03">
  <defs>
    <style>
      .cls-1 {
        fill: #231815;
      }
    </style>
  </defs>
  <g>
    <path class="cls-1" d="M102.46,12.72h1.68c10.92,2.36,16.78,3.94,17.57,4.74l3.05,1.46c.35,1.03.47,1.84.35,2.43-1.71,5.76-3.16,8.63-4.34,8.63-.88.27-1.58.4-2.08.4-1.8-.59-2.54-1.62-2.21-3.1.77-2.48,1.18-3.79,1.24-3.94-3.96-.35-8.25-1.25-12.88-2.7-3.1-.32-4.75-.59-4.96-.8-5.25,6.73-8.54,11.79-9.87,15.18-3.36,5.13-6.42,11.76-9.16,19.88l-.62,2.97c2.36,5.84,4.4,9.89,6.11,12.13.56.71.75,1.06.58,1.06l8.63-1.55c9.74-3.51,16.02-6.11,18.86-7.79h1.28c2.24.21,3.17,1.17,2.79,2.88l-.09.4c-.59,2.77-5.67,5.55-15.23,8.32-2.39,1.3-6.55,2.52-12.48,3.67-.41,0-2.07.27-4.96.8-3.16,0-6.04-2.8-8.63-8.41-2.39-5.93-3.38-9.9-2.97-11.91,1.33-6.26,6.2-16.93,14.61-32.01,2.04-3.22,4.65-6.6,7.84-10.14,1.3-1.12,3.26-1.99,5.89-2.61Z"/>
    <path class="cls-1" d="M159.12,12.99h.8c2.36,0,6.07,1.11,11.11,3.32,1.51.21,3.98,1.96,7.44,5.27,1.77,6.43,2.41,10.8,1.9,13.1.56,0-.16,5-2.17,15.01-1.03,4.87-3.57,9.92-7.61,15.14-7.62,8.65-14.33,12.97-20.14,12.97h-.44c-9.21-.47-13.72-1.12-13.55-1.95-4.16-1.71-8.1-4.68-11.82-8.9-3.93-2.07-5.55-4.75-4.87-8.06l.22-.84c2.54-9.41,4.85-16.1,6.95-20.05,1.74-3.3,6.95-9.27,15.63-17.88,5.46-4.6,10.32-6.91,14.56-6.91.03-.15.69-.22,1.99-.22ZM129.55,50.31c-.77,4.22-1.26,6.82-1.46,7.79,1.68.62,4.22,2.49,7.61,5.62,4.34,2.6,8.22,3.9,11.64,3.9l5,.62c3.04,0,7.36-3.5,12.97-10.49,2.01-3.13,3.28-5.95,3.81-8.46,2.39-11.24,2.63-18.61.71-22.09l-3.94-2.08c-2.04-.53-4.44-1.39-7.22-2.57-2.8,0-4.49-.83-5.05-2.48-1.06,0-4.15,2.32-9.25,6.95-7.67,8.29-11.73,13.49-12.17,15.58-1.3,2.92-2.18,5.49-2.66,7.7Z"/>
    <path class="cls-1" d="M194.63,13.25h.31c5.46.94,10.34,2.26,14.65,3.94,3.28,2.8,6.45,4.96,9.52,6.46,1.39,1.65,1.93,3.17,1.64,4.56-3.63,9.06-6.71,13.59-9.25,13.59-4.1,2.07-7.01,3.47-8.72,4.21.03-.12,1.12.94,3.28,3.19,2.3,3.9,3.92,7.88,4.87,11.95-.21,1,1.12,4.93,3.98,11.78.15.35.16.81.04,1.37l-.09.44c-.74,2.04-2.05,3.05-3.94,3.05-1.54,0-3.22-3.11-5.05-9.34-.71-1.98-1.71-5.71-3.01-11.2-1.45-3.19-3.07-5.81-4.87-7.88-.15-.65-.03-.97.35-.97-.41,0-3.03.88-7.84,2.66-.29,1.39-.5,2.67-.62,3.85l-3.14,10.98c-.35,2.92-.63,4.87-.84,5.84-.29,1.42-1.18,2.51-2.66,3.28h-.53c-1.86,0-2.57-1.74-2.12-5.22-.44,0-.24-2.35.62-7.04l1.15-5.45c.41-1.92,1.21-8.16,2.39-18.73.89-6.73,1.86-13.18,2.92-19.34-.15,0-.13-.43.04-1.28.68-3.13,2.98-4.69,6.91-4.69ZM194.98,20.07l-3.5,23.37h-1.2c1.62-.74,4.03-1.51,7.21-2.3,3.04-2.01,7.38-4.03,13.02-6.06.86-1.21,2.02-3.39,3.5-6.55-.15-.21-1.14-.69-2.97-1.46-3.6-3.51-7.7-5.67-12.31-6.46-1.92,0-3.17-.18-3.76-.53Z"/>
    <path class="cls-1" d="M269.84,12.46h.35c.91.21,1.39.96,1.42,2.26l-.13.58c-.47,2.21-2.38,6.61-5.71,13.19l-6.77,10.71c-2.86,5.55-4.86,9.71-5.98,12.48.03,1.3-.18,3.03-.62,5.18-.53,2.48-1.39,5.43-2.57,8.85-1.71,8.06-3.9,12.09-6.55,12.09h-.35c-2.36,0-3.84-1.4-4.43-4.21l.04-.31c.18-.83,1.22-3.88,3.14-9.16,1.21-3.87,2.05-6.91,2.52-9.12.32-1.5.47-2.66.44-3.45.35-1.21,1.12-3.01,2.3-5.4.21-.44.32-.74.35-.89v.18c-.86-.77-1.33-2.3-1.42-4.6.24,0,.31.27.22.8l-.04.27c-.92-1-2.7-3.84-5.36-8.5-5.13-5.87-8.38-11.01-9.74-15.41,0-.18.01-.34.04-.49.15-.77.83-1.4,2.04-1.9,2.01,0,4.72,2.39,8.14,7.17,4.75,5.49,7.7,9.56,8.85,12.22,1.62,2.24,2.32,2.72,2.08,1.42.94-1.74,2.64-4.21,5.09-7.39,3.07-4.28,6.2-9.19,9.38-14.74,1.18-1.21,2.26-1.82,3.23-1.82Z"/>
  </g>
  <g>
    <path d="M17.03,41.23c-.94,6.96-2.44,13.78-5.2,20.26-1.64,3.85-3.73,7.41-6.74,10.35-.67.65-1.5,1.16-2.32,1.61-.71.39-1.45.23-2.07-.35-.6-.57-.87-1.3-.57-2.04.36-.86.76-1.8,1.42-2.43,2.17-2.08,3.5-4.7,4.86-7.29,2.97-5.64,5.06-11.6,6.38-17.83.95-4.52,1.24-9.12,1.43-13.73.12-2.82.27-5.65,1.66-8.22.76-1.41,1.8-2.54,3.37-3.06,2.04-.68,3.55-2.11,5.01-3.58,2.74-2.76,5.4-5.6,8.2-8.29,2.5-2.4,5.23-4.54,8.59-5.65,1.3-.43,2.67-.68,4.01-.97.26-.06.57.06.84.15,5.84,1.89,10.8,5.2,15.19,9.44,2.21,2.14,4.1,4.52,5.52,7.26,2.17,4.18,2.38,8.45,1,12.97-1.61,5.31-2.88,10.73-3.72,16.23-1.18,7.75-.54,15.31,2.18,22.7,1.16,3.16,2.24,6.36,3.19,9.58.38,1.29.39,2.72.39,4.08,0,.46-.46,1.13-.88,1.31-.29.13-1.06-.29-1.29-.66-.99-1.61-2.01-3.23-2.75-4.96-2.08-4.93-4.06-9.92-5.08-15.21-.85-4.41-.95-8.86-.75-13.33.26-5.69,1.21-11.28,2.3-16.85.45-2.32,1.06-4.6,1.44-6.93.78-4.79-.77-8.87-4.32-12.06-2.43-2.19-5.07-4.17-7.74-6.06-2.71-1.92-5.62-1.75-8.51-.28-2.97,1.51-5.36,3.77-7.71,6.06-2.24,2.18-4.52,4.27-7.48,5.46-1.12.45-1.99,1.26-2.5,2.39-.07.16-.19.29-.26.44-.68,1.48-1.8,2.16-3.45,2.25-1.98.11-2.58.71-2.8,2.68-.15,1.31-.08,2.64-.14,3.96-.14,3.53-.3,7.06-.45,10.6-.08,0-.16,0-.24-.01Z"/>
    <path d="M44.48,28.28c-.18,1.49-.4,2.97-.54,4.46-.16,1.71.53,2.98,2.14,3.66,1.83.77,3.69,1.46,5.52,2.24.84.36,1.63.84,2.43,1.29.24.14.46.35.64.57.62.77.67,1.88.14,2.66-.43.64-1.28.86-2.26.59-1-.28-1.99-.59-2.99-.86-1.78-.5-2.61.03-2.73,1.86-.14,2.2.48,4.28,1.19,6.32.83,2.39,1.73,4.76,2.5,7.18,1.25,3.96,1.37,8.04,1.04,12.15-.5,6.36-1.76,12.55-4.41,18.39-1.66,3.67-3.9,6.98-6.71,9.88-1.13,1.16-2.47,2.01-4.07,2.3-.58.1-1.52.14-1.74-.17-.29-.42-.23-1.32.04-1.83.84-1.6,1.76-3.17,2.81-4.64,2.03-2.86,4.41-5.49,5.77-8.78.45-1.08.8-2.22,1-3.37.22-1.23-.28-1.75-1.49-1.49-2.13.46-4.23,1.08-6.33,1.65-2.83.78-5.68,1.54-8.64,1.51-.87,0-1.77-.19-2.61-.45-.93-.29-1.43-1.06-1.46-2.04-.03-.98.58-1.61,1.44-1.82,1.41-.36,2.86-.72,4.31-.8,3.75-.19,7.44-.7,11.08-1.63,4.27-1.09,5.96-2.98,6.32-7.39.32-3.85-.2-7.65-1.12-11.38-.31-1.24-.83-2.44-1.32-3.63-.33-.8-1-1.02-1.78-.67-2.52,1.12-5.07,2.19-7.54,3.41-2.37,1.17-4.64,2.54-7,3.74-1.21.62-2.51,1.01-3.92.73-.9-.18-1.59-.65-1.82-1.52-.21-.8.37-1.33.94-1.8,2.1-1.71,4.63-2.56,7.14-3.39,2.5-.83,5-1.61,7.13-3.21,1.17-.88,2.38-1.77,3.32-2.86,2.15-2.52,2.24-5.32.33-8.47-.47-.78-1.2-1.47-1.96-1.98-2.62-1.77-5.33-3.42-7.95-5.19-.97-.65-1.83-1.49-2.69-2.3-.41-.39-.75-.88-1.03-1.38-.38-.68-.39-1.39.16-2.01.56-.63,1.32-.86,2.03-.5,1.22.62,2.38,1.37,3.53,2.13,1.27.84,2.45,1.83,3.75,2.61,1.47.88,2.51.46,2.91-1.21.32-1.36.38-2.79.58-4.18.15-1.05.28-2.11.52-3.15.21-.89.7-1.65,1.57-2.06,1.29-.61,2.31-.06,2.35,1.36.03,1.12-.11,2.24-.2,3.36-.06.72-.17,1.43-.26,2.14-.02,0-.04,0-.06,0Z"/>
  </g>
</svg>
