<?xml version="1.0" encoding="UTF-8"?>
<svg id="layer1" data-name="layer1" xmlns="http://www.w3.org/2000/svg" viewBox="0 0 388.91 105.24">
  <defs>
    <style>
      .cls-1 {
        fill: #231815;
      }
    </style>
  </defs>
  <path class="cls-1" d="M129.63.43h2.71c17.59,3.8,27.02,6.35,28.31,7.63l4.92,2.35c.57,1.66.76,2.97.57,3.92-2.76,9.27-5.09,13.9-6.99,13.9-1.43.43-2.54.64-3.35.64-2.9-.95-4.09-2.61-3.57-4.99,1.23-3.99,1.9-6.11,2-6.35-6.37-.57-13.29-2.02-20.75-4.35-4.99-.52-7.65-.95-7.99-1.28-8.46,10.84-13.76,18.99-15.9,24.46-5.42,8.27-10.34,18.94-14.76,32.01l-1,4.78c3.8,9.41,7.08,15.92,9.84,19.54.9,1.14,1.21,1.71.93,1.71l13.9-2.49c15.69-5.66,25.81-9.84,30.37-12.55h2.07c3.61.33,5.11,1.88,4.49,4.64l-.14.64c-.95,4.47-9.13,8.94-24.53,13.4-3.85,2.09-10.55,4.06-20.11,5.92-.67,0-3.33.43-7.99,1.28-5.09,0-9.72-4.52-13.9-13.55-3.85-9.56-5.44-15.95-4.78-19.18,2.14-10.08,9.98-27.26,23.53-51.55,3.28-5.18,7.49-10.62,12.62-16.33,2.09-1.81,5.25-3.21,9.48-4.21Z"/>
  <path class="cls-1" d="M220.9.86h1.28c3.8,0,9.77,1.78,17.9,5.35,2.43.33,6.42,3.16,11.98,8.48,2.85,10.36,3.87,17.4,3.07,21.11.9,0-.26,8.06-3.5,24.17-1.66,7.84-5.75,15.97-12.26,24.39-12.27,13.93-23.08,20.89-32.44,20.89h-.71c-14.83-.76-22.1-1.81-21.82-3.14-6.7-2.76-13.05-7.53-19.04-14.33-6.32-3.33-8.94-7.65-7.84-12.98l.36-1.35c4.09-15.16,7.82-25.93,11.19-32.3,2.8-5.32,11.19-14.93,25.17-28.81,8.8-7.41,16.61-11.12,23.46-11.12.05-.24,1.12-.36,3.21-.36ZM173.27,60.96c-1.24,6.8-2.02,10.98-2.35,12.55,2.71,1,6.8,4.02,12.26,9.06,6.99,4.18,13.24,6.27,18.75,6.27l8.06,1c4.89,0,11.86-5.63,20.89-16.9,3.23-5.04,5.28-9.58,6.13-13.62,3.85-18.11,4.23-29.97,1.14-35.58l-6.35-3.35c-3.28-.86-7.15-2.24-11.62-4.14-4.52,0-7.23-1.33-8.13-3.99-1.71,0-6.68,3.73-14.9,11.19-12.36,13.36-18.9,21.72-19.61,25.1-2.09,4.71-3.52,8.84-4.28,12.41Z"/>
  <path class="cls-1" d="M279.08,1.28h.5c8.79,1.52,16.66,3.64,23.6,6.35,5.28,4.52,10.38,7.99,15.33,10.41,2.23,2.66,3.11,5.11,2.64,7.34-5.85,14.59-10.82,21.89-14.9,21.89-6.61,3.33-11.29,5.59-14.05,6.77.05-.19,1.81,1.52,5.28,5.13,3.71,6.27,6.32,12.69,7.84,19.25-.33,1.62,1.81,7.94,6.42,18.97.24.57.26,1.31.07,2.21l-.14.71c-1.19,3.28-3.3,4.92-6.35,4.92-2.47,0-5.18-5.01-8.13-15.04-1.14-3.19-2.76-9.2-4.85-18.04-2.33-5.13-4.95-9.36-7.84-12.69-.24-1.04-.05-1.57.57-1.57-.67,0-4.87,1.43-12.62,4.28-.48,2.23-.81,4.3-1,6.2l-5.06,17.68c-.57,4.7-1.02,7.84-1.35,9.41-.48,2.28-1.9,4.04-4.28,5.28h-.86c-2.99,0-4.14-2.8-3.42-8.41-.71,0-.38-3.78,1-11.34l1.86-8.77c.66-3.09,1.95-13.14,3.85-30.16,1.43-10.84,2.99-21.22,4.71-31.16-.24,0-.21-.69.07-2.07,1.09-5.04,4.8-7.56,11.12-7.56ZM279.65,12.26l-5.63,37.65h-1.93c2.61-1.19,6.49-2.43,11.62-3.71,4.9-3.23,11.88-6.49,20.96-9.77,1.38-1.95,3.26-5.47,5.63-10.55-.24-.33-1.83-1.12-4.78-2.35-5.8-5.66-12.41-9.13-19.82-10.41-3.09,0-5.11-.28-6.06-.86Z"/>
  <path class="cls-1" d="M386.06,0h.57c1.47.33,2.23,1.54,2.28,3.64l-.21.93c-.76,3.57-3.83,10.65-9.2,21.25l-10.91,17.25c-4.61,8.94-7.82,15.64-9.63,20.11.05,2.09-.29,4.87-1,8.34-.86,3.99-2.24,8.75-4.14,14.26-2.76,12.98-6.27,19.47-10.55,19.47h-.57c-3.8,0-6.18-2.26-7.13-6.77l.07-.5c.29-1.33,1.97-6.25,5.06-14.76,1.95-6.23,3.3-11.12,4.06-14.69.52-2.42.76-4.28.71-5.56.57-1.95,1.81-4.85,3.71-8.7.33-.71.52-1.19.57-1.43v.29c-1.38-1.24-2.14-3.71-2.28-7.42.38,0,.5.43.36,1.28l-.07.43c-1.47-1.62-4.35-6.18-8.63-13.69-8.27-9.46-13.5-17.73-15.69-24.81,0-.28.02-.55.07-.78.24-1.24,1.33-2.26,3.28-3.07,3.23,0,7.6,3.85,13.12,11.55,7.65,8.84,12.41,15.4,14.26,19.68,2.61,3.61,3.73,4.37,3.35,2.28,1.52-2.8,4.25-6.77,8.2-11.91,4.94-6.89,9.98-14.81,15.12-23.74,1.9-1.95,3.64-2.92,5.21-2.92Z"/>
  <g>
    <path d="M70.27,86.57c-1.19-.1-2.49-.83-3.15-1.8l-.22-.32c-1.03-1.49-2.1-3.02-2.94-4.76-2.27-4.65-4.59-9.66-5.97-15.16-.99-3.96-1.47-8.29-1.51-13.65-.05-5.9.64-11.66,1.39-17.02.13-.95.29-1.9.45-2.85.23-1.35.44-2.63.58-3.92.4-3.67-.89-6.73-3.84-9.11-2.63-2.12-5.46-3.97-7.63-5.34-.68-.43-1.35-.67-2.04-.72-1.07-.07-2.2.25-3.43.95-2.38,1.38-4.31,3.36-6.58,5.82-2.3,2.49-4.63,4.85-7.9,6.37-.44.2-.73.52-.9.96-.08.19-.17.38-.28.56-.97,2.35-2.87,3.74-5.51,4.02-.04,0-.08,0-.11.01,0,.05,0,.1-.01.16-.04.69,0,1.43.03,2.21.02.49.04.98.05,1.47.03,2.61.06,5.21.09,7.82l.06,5.38h-.51c-.72,7.04-1.98,12.87-3.96,18.29-1.71,4.69-3.88,8.42-6.62,11.41-.87.94-1.88,1.63-2.77,2.18-.8.5-1.7.72-2.61.66h0c-1-.08-1.91-.47-2.69-1.14-1.55-1.31-2.12-3.23-1.48-5.01.33-.93.83-2.33,1.85-3.42,1.61-1.72,2.63-3.93,3.7-6.27l.18-.38c2.44-5.29,4.15-11.03,5.08-17.05.69-4.46.7-9.08.65-13.05-.03-2.72-.08-6.11,1.46-9.36,1.08-2.28,2.6-3.77,4.63-4.57,1.35-.53,2.46-1.68,3.66-3.03.88-.99,1.76-1.99,2.63-2.99l.07-.08c1.59-1.82,3.24-3.7,4.93-5.51,2.13-2.27,5.09-5.09,9.12-6.67,1.18-.46,2.39-.78,3.45-1.06l.71-.19c.37-.1.76-.14,1.17-.11h0c.46.04.79.13,1.02.19,5.94,1.58,11.35,4.54,16.54,9.05,2.68,2.33,4.75,4.78,6.35,7.5,2.65,4.51,3.29,9.32,1.96,14.71-1.31,5.3-2.22,10.57-2.72,15.69-.72,7.3.33,14.27,3.1,20.73,1.42,3.31,2.63,6.38,3.69,9.39.58,1.65.68,3.37.75,4.74.09,1.56-.91,3.26-2.32,3.97-.5.25-1.05.35-1.63.31h-.04Z"/>
    <path d="M73.16,82.36c-.07-1.31-.16-2.94-.69-4.44-1.05-2.98-2.25-6.03-3.66-9.32-2.85-6.63-3.92-13.79-3.19-21.28.51-5.16,1.43-10.49,2.75-15.84,1.26-5.1.65-9.64-1.84-13.88-1.54-2.62-3.54-4.98-6.12-7.23-5.06-4.4-10.3-7.28-16.09-8.82-.21-.06-.49-.13-.81-.15-.28-.02-.55,0-.81.07l-.72.19c-1.09.29-2.22.59-3.33,1.02-3.83,1.5-6.67,4.21-8.72,6.4-1.68,1.8-3.32,3.67-4.9,5.49-.9,1.03-1.8,2.06-2.71,3.08-1.3,1.45-2.5,2.7-4.08,3.32-1.76.69-3.08,2-4.03,4.01-1.43,3.01-1.39,6.26-1.36,8.87.05,4.02.04,8.69-.66,13.24-.95,6.12-2.69,11.96-5.17,17.35l-.18.38c-1.12,2.42-2.17,4.71-3.9,6.56-.86.92-1.3,2.14-1.61,3.03-.48,1.36-.05,2.78,1.15,3.79.62.52,1.33.82,2.05.87.67.05,1.35-.12,1.95-.5.82-.51,1.76-1.14,2.53-1.99,2.64-2.88,4.74-6.49,6.4-11.04,2.03-5.56,3.31-11.64,4-19.02h.39s-.05-4.26-.05-4.26c-.03-2.6-.06-5.21-.09-7.81,0-.48-.03-.96-.05-1.44-.04-.81-.07-1.58-.03-2.32.05-.81.17-.99.17-.99,0,0,.17-.13.94-.22,2.27-.24,3.83-1.4,4.63-3.41.09-.15.18-.31.24-.47.28-.72.77-1.24,1.47-1.57,3.09-1.44,5.34-3.71,7.56-6.11,2.33-2.53,4.32-4.57,6.84-6.03,1.42-.82,2.77-1.19,4.01-1.1.9.06,1.76.36,2.61.9,2.2,1.39,5.06,3.26,7.73,5.41,3.26,2.63,4.69,6.03,4.25,10.1-.14,1.32-.36,2.61-.59,3.98-.16.94-.32,1.88-.45,2.82-.75,5.31-1.43,11.03-1.38,16.86.04,5.27.51,9.52,1.48,13.39,1.35,5.4,3.65,10.34,5.89,14.95.81,1.66,1.85,3.16,2.86,4.61l.22.32c.48.7,1.5,1.26,2.36,1.32.38.03.74-.04,1.06-.2,1-.5,1.77-1.81,1.71-2.91Z"/>
    <path d="M38.48,105.21c-1.06-.09-1.92-.53-2.49-1.27-1.03-1.34-.97-3.35-.37-4.64.88-1.91,1.76-3.55,2.69-5.02.48-.76.98-1.5,1.48-2.24,1.38-2.04,2.68-3.97,3.43-6.09.04-.13.09-.25.13-.38-.73.24-1.46.48-2.18.72l-1.29.43c-2.73.91-5.8,1.93-9.14,2.07-.38.02-.76.01-1.14-.02h-.14c-.68-.07-1.39-.19-2.11-.37-2.04-.52-3.43-2.19-3.62-4.37-.19-2.18,1.12-4.09,3.25-4.75,1.41-.44,3.01-.93,4.7-1.11,3.68-.39,7.02-1.07,10.22-2.07,3.04-.96,3.76-1.89,3.86-4.99.09-3.08-.42-6.42-1.58-10.19-.17-.56-.41-1.13-.68-1.71l-.29.15c-1.82.91-3.7,1.86-5.48,2.86-1.17.66-2.36,1.4-3.5,2.11-1.04.65-2.07,1.29-3.13,1.9-1.74,1.01-3.39,1.44-5.05,1.33h-.1c-.14-.02-.29-.04-.43-.06-2.01-.28-3.55-1.52-4.11-3.3-.53-1.67.01-3.26,1.61-4.71,2.36-2.15,5.17-3.25,7.65-4.22l.37-.14c2.12-.83,4.12-1.61,5.67-2.91l.21-.18c.95-.8,1.85-1.55,2.47-2.36,1.22-1.58,1.15-3.04-.21-5.05-.23-.34-.67-.72-1.16-1.02-1.32-.8-2.67-1.56-4.01-2.32-1.39-.79-2.73-1.55-4.04-2.34-1.1-.66-2.02-1.44-2.9-2.19l-.21-.18c-.59-.5-1.14-1.15-1.63-1.93-1.06-1.69-.97-3.67.23-5.19.97-1.22,2.36-1.87,3.81-1.76h0c.53.04,1,.16,1.45.36,1.39.62,2.66,1.35,3.84,2.04.58.34,1.14.71,1.7,1.07.31.2.6.39.9.58.03-.35.05-.72.07-1.09.03-.5.05-1.01.1-1.51l.04-.45c.08-.94.16-1.9.34-2.89.31-1.8,1.32-3.24,2.84-4.07.86-.47,1.78-.68,2.65-.62h0c2.12.17,3.63,1.8,3.82,4.04.08,1.02.05,2.03.01,2.91l-.02.69c-.02.53-.06,1.06-.1,1.59l-.24,3.4h-.07c-.03.51-.07,1.03-.09,1.54-.02.55.05.59.45.73.83.29,1.66.57,2.49.85,1.02.34,2.04.68,3.05,1.05.87.32,1.67.72,2.38,1.08l.36.18c.52.26,1,.64,1.46,1.14,1.47,1.63,1.72,4.06.6,5.91-.87,1.44-2.48,2.22-4.29,2.09h-.01c-.33-.03-.59-.07-.87-.13-.44-.1-.89-.2-1.33-.31,0,0-.55-.13-.77-.18.16,1.4.69,2.8,1.24,4.13.29.71.59,1.42.89,2.13l.07.16c.65,1.56,1.31,3.11,1.9,4.68,1.38,3.67,1.96,7.77,1.83,12.88-.19,7.28-1.34,13.55-3.54,19.17-1.57,4.01-3.77,7.66-6.55,10.84-1.53,1.75-3.33,2.87-5.33,3.34-.4.09-1.19.24-1.99.18h-.06Z"/>
    <path d="M48.93,46.35c.15.01.31.04.48.08.52.11,1.03.24,1.55.36.47.11.94.22,1.42.33.24.05.48.09.71.11,1.39.1,2.61-.49,3.26-1.56.87-1.43.68-3.32-.47-4.58-.37-.4-.74-.7-1.14-.9l-.37-.18c-.71-.36-1.45-.74-2.25-1.03-1-.37-2.01-.7-3.02-1.04-.84-.28-1.68-.56-2.51-.86-.89-.32-1.23-.83-1.18-1.82.04-.9.1-1.79.17-2.68h.06s.16-2.3.16-2.3c.04-.51.08-1.02.1-1.54l.02-.69c.03-.9.07-1.83-.01-2.78-.14-1.73-1.23-2.92-2.78-3.02-.66-.05-1.37.12-2.04.49-1.22.66-2.02,1.82-2.28,3.28-.16.94-.25,1.88-.32,2.79l-.04.46c-.04.49-.07.98-.1,1.48-.05.88-.09,1.71-.23,2.49-.02.13-.05.22-.07.29-.07-.03-.17-.07-.29-.13-.7-.37-1.37-.81-2.09-1.28-.55-.36-1.1-.71-1.66-1.05-1.16-.68-2.4-1.4-3.73-1.99-.35-.15-.71-.25-1.08-.27-1.08-.07-2.13.42-2.87,1.35-.92,1.15-.98,2.61-.16,3.9.43.68.91,1.25,1.41,1.68l.19.16c.86.73,1.75,1.49,2.78,2.1,1.31.78,2.63,1.54,3.96,2.29,1.37.78,2.74,1.56,4.09,2.37.63.38,1.18.87,1.51,1.35,1.64,2.41,1.7,4.37.18,6.35-.7.91-1.64,1.7-2.64,2.54l-.21.18c-1.68,1.42-3.77,2.24-5.98,3.1l-.36.14c-2.39.94-5.1,2-7.32,4.01-.51.47-1.88,1.71-1.3,3.55.44,1.39,1.61,2.31,3.21,2.54.15.02.3.04.45.05,1.43.1,2.87-.29,4.41-1.18,1.04-.6,2.07-1.24,3.09-1.88,1.16-.72,2.35-1.47,3.54-2.13,1.8-1.01,3.69-1.96,5.52-2.88l1.31-.66.04.09c.46.97.9,1.88,1.18,2.8,1.19,3.89,1.72,7.34,1.62,10.55-.11,3.57-1.15,4.92-4.63,6.02-3.27,1.02-6.68,1.72-10.43,2.11-1.59.17-3.13.65-4.49,1.07-1.65.51-2.62,1.92-2.48,3.59.15,1.69,1.21,2.99,2.79,3.39.71.18,1.4.29,2.05.34.34.02.68.03,1.01.02,3.19-.14,6.19-1.13,8.83-2.01l1.27-.43c1.34-.45,2.73-.92,4.1-1.32-.14.78-.35,1.58-.63,2.39-.8,2.26-2.14,4.24-3.56,6.34-.5.74-.99,1.47-1.47,2.22-.9,1.42-1.75,3.01-2.62,4.88-.44.96-.51,2.51.25,3.5.39.51.97.79,1.75.84.69.05,1.39-.09,1.66-.16,1.78-.41,3.37-1.42,4.75-2.99,2.69-3.08,4.83-6.62,6.35-10.51,2.15-5.49,3.28-11.64,3.46-18.79.13-4.97-.43-8.93-1.76-12.46-.59-1.57-1.25-3.13-1.88-4.64-.32-.76-.64-1.53-.96-2.3-.71-1.73-1.39-3.57-1.37-5.48,0-.2.02-.34.03-.43,0,0,.02,0,.03,0Z"/>
  </g>
</svg>
